<svg width="25" height="25" viewBox="0 0 25 25" fill="none" xmlns="http://www.w3.org/2000/svg">
<g clip-path="url(#clip0)">
<path d="M20.9944 4.81935C20.4837 4.30835 19.8772 3.90299 19.2098 3.62643C18.5423 3.34987 17.8269 3.20752 17.1044 3.20752C16.3819 3.20752 15.6665 3.34987 14.9991 3.62643C14.3316 3.90299 13.7252 4.30835 13.2144 4.81935L12.1544 5.87935L11.0944 4.81935C10.0627 3.78765 8.66345 3.20805 7.20442 3.20805C5.74538 3.20805 4.34611 3.78765 3.31442 4.81935C2.28272 5.85104 1.70313 7.25031 1.70312 8.70934C1.70312 10.1684 2.28272 11.5677 3.31442 12.5993L4.37442 13.6593L12.1544 21.4393L19.9344 13.6593L20.9944 12.5993C21.5054 12.0886 21.9108 11.4822 22.1873 10.8147C22.4639 10.1472 22.6062 9.43183 22.6062 8.70934C22.6062 7.98686 22.4639 7.27145 22.1873 6.60399C21.9108 5.93653 21.5054 5.3301 20.9944 4.81935Z" fill="#202020" stroke="#202020" stroke-width="2" stroke-linecap="round" stroke-linejoin="round"/>
</g>
<defs>
<clipPath id="clip0">
<rect width="24" height="24" fill="white" transform="translate(0.15625 0.209473)"/>
</clipPath>
</defs>
</svg>