<svg width="25" height="25" viewBox="0 0 25 25" fill="none" xmlns="http://www.w3.org/2000/svg">
<path d="M2.15625 3.76367H8.15625C9.21712 3.76367 10.2345 4.1851 10.9847 4.93524C11.7348 5.68539 12.1562 6.70281 12.1562 7.76367V21.7637C12.1562 20.968 11.8402 20.205 11.2776 19.6424C10.715 19.0797 9.9519 18.7637 9.15625 18.7637H2.15625V3.76367Z" fill="#202020" stroke="#202020" stroke-width="2" stroke-linecap="round" stroke-linejoin="round"/>
<path d="M22.1562 3.76367H16.1562C15.0954 3.76367 14.078 4.1851 13.3278 4.93524C12.5777 5.68539 12.1563 6.70281 12.1562 7.76367V21.7637C12.1562 20.968 12.4723 20.205 13.0349 19.6424C13.5975 19.0797 14.3606 18.7637 15.1562 18.7637H22.1562V3.76367Z" fill="#202020" stroke="#202020" stroke-width="2" stroke-linecap="round" stroke-linejoin="round"/>
</svg>