<svg width="119" height="32" viewBox="0 0 119 32" fill="none" xmlns="http://www.w3.org/2000/svg">
<path d="M16.6477 26.7126C16.6477 26.9757 16.4284 27.1073 16.0775 27.1073H15.7704C14.323 27.1073 11.8668 27.195 11.0992 24.6291C10.4413 26.0546 9.1254 27.4802 6.51563 27.4802C2.78739 27.4802 1.18644 25.4187 1.18644 21.3176V15.1769C1.18644 14.1681 1.14258 13.6857 0.550445 13.4883C0.221483 13.4225 0.0460358 13.2909 0.0460358 13.0277C0.0460358 12.7865 0.221483 12.633 0.572376 12.611C1.44961 12.611 3.35759 12.5891 5.68226 12.2163C6.01122 12.1286 6.23053 12.304 6.23053 12.633V21.3176C6.23053 23.3352 6.66915 25.1335 8.5552 25.1335C10.507 25.1335 10.836 22.9405 10.836 21.0325V15.1769C10.836 14.1681 10.7483 13.6857 10.1562 13.4883C9.87105 13.4005 9.67368 13.269 9.67368 13.0058C9.67368 12.7646 9.82719 12.611 10.1781 12.5891C11.0553 12.5891 12.9852 12.5672 15.3099 12.1944C15.6389 12.1286 15.8582 12.304 15.8582 12.633V24.1028C15.8582 24.9362 15.8362 26.0327 16.2749 26.3178C16.4503 26.4494 16.6477 26.5152 16.6477 26.7126Z" fill="#202020"/>
<path d="M34.4324 20.4399C34.2569 25.4621 30.8138 27.9842 26.5811 27.3262C25.2214 27.1069 24.2565 26.449 23.6643 25.5718V29.5412C23.6643 30.6159 23.9494 31.0983 24.7389 31.2518C25.046 31.2957 25.2433 31.4054 25.2433 31.6466C25.2433 31.9098 25.0898 32.0194 24.717 31.9975C24.1029 31.9756 22.9625 31.9098 21.3177 31.9098C19.6948 31.9098 18.5764 31.9536 18.0062 31.9975C17.6333 32.0194 17.4798 31.9098 17.4798 31.6466C17.4798 31.4054 17.6333 31.2957 17.9623 31.2299C18.5764 31.0545 18.6422 30.5281 18.6422 29.5412V15.6371C18.6422 14.6283 18.5544 14.1458 17.9623 13.9484C17.6772 13.8607 17.4798 13.7291 17.4798 13.4659C17.4798 13.2247 17.6114 13.0712 17.8965 13.0492C18.8176 12.9177 20.7914 12.7422 22.809 12.1282C23.1818 12.0185 23.3792 12.1062 23.4231 12.4352L23.5547 14.1897C24.4319 12.7422 25.8135 11.7334 28.0066 11.7334C32.2612 11.7553 34.6297 15.3081 34.4324 20.4399ZM29.2786 19.3653C29.2128 15.7029 27.8312 13.7072 26.1425 13.8388C24.388 13.9484 23.4231 16.0976 23.5985 20.6593C23.7301 24.2559 25.046 25.9446 26.7785 25.8349C28.5549 25.7033 29.3663 22.9181 29.2786 19.3653Z" fill="#202020"/>
<path d="M57.9833 16.0976L53.7945 26.7341C53.6848 26.9753 53.5094 27.1289 53.2462 27.1289H50.2417C49.9785 27.1289 49.8031 26.9973 49.6934 26.7341L46.9301 19.168L43.9037 26.756C43.8159 26.9973 43.6186 27.1508 43.3554 27.1508L42.6755 27.1289V27.1508H40.3947C40.1316 27.1508 39.9561 27.0192 39.8465 26.756L35.3726 14.6063C34.9559 13.4659 34.7366 13.137 34.1006 12.8957C33.7935 12.7861 33.6181 12.6764 33.6181 12.4571C33.6181 12.2378 33.7716 12.1062 34.1444 12.1501C34.7804 12.172 35.8331 12.2378 37.5437 12.2378C39.1227 12.2378 40.0658 12.2159 40.614 12.1501C40.9649 12.1282 41.1404 12.2378 41.1404 12.4571C41.1404 12.6764 40.9649 12.808 40.7018 12.9396C40.3289 13.1808 40.4605 13.6414 40.7237 14.6283L43.5308 24.2121L46.0968 16.9968L45.2195 14.6063C44.8028 13.4659 44.5616 13.137 43.9256 12.9177C43.6405 12.7861 43.4431 12.6764 43.4431 12.4352C43.4431 12.2159 43.5966 12.0843 43.9695 12.1282C44.6055 12.1501 45.6801 12.2378 47.3907 12.2378C48.9478 12.2378 49.9127 12.194 50.4391 12.1282C50.79 12.1062 50.9873 12.2159 50.9873 12.4352C50.9873 12.6984 50.8119 12.7861 50.5487 12.9396C50.154 13.1589 50.2855 13.6414 50.5706 14.6063L53.3559 24.1901L55.8998 17.0626C56.5358 15.3081 54.7594 14.9572 54.4963 13.4221C54.3427 12.4571 55.0665 11.3606 56.3823 11.4483C58.7289 11.5141 58.9044 13.751 57.9833 16.0976Z" fill="#202020"/>
<path d="M74.5137 19.6068C74.5137 23.9491 71.5092 27.4361 66.7282 27.4361C61.9034 27.4361 58.9428 23.9271 58.9428 19.6068C58.9647 15.2864 61.9034 11.7774 66.7282 11.7774C71.5092 11.7555 74.5137 15.2864 74.5137 19.6068ZM64.1185 20.1331C64.7983 23.7736 66.2238 26.7781 68.1976 26.4272C70.0836 25.9886 70.0398 22.6771 69.3819 19.0804C68.6801 15.4838 67.2546 12.4354 65.3027 12.7863C63.3728 13.2249 63.4386 16.5584 64.1185 20.1331Z" fill="#202020"/>
<path d="M85.8736 16.9977C83.527 16.9538 84.7332 14.2563 82.9349 14.2563C81.7945 14.2563 81.7287 16.1424 81.7287 17.2828V24.6296C81.7287 25.7262 82.0138 26.2086 82.8033 26.3402C83.1542 26.4279 83.3296 26.5157 83.3296 26.7569C83.3296 26.9981 83.1542 27.1297 82.7814 27.1078C82.1673 27.042 81.0269 26.9981 79.3821 26.9981C77.7592 26.9981 76.6627 27.042 76.0705 27.1078C75.7196 27.1297 75.5442 26.9981 75.5442 26.7569C75.5442 26.5157 75.7196 26.406 76.0486 26.3183C76.6188 26.1648 76.7065 25.6384 76.7065 24.6296V16.3398C76.7065 15.3309 76.6188 14.8046 76.0486 14.6292C75.7416 14.5414 75.5442 14.4098 75.5442 14.1905C75.5442 13.9274 75.6977 13.7958 75.9828 13.7519C76.9039 13.5984 78.79 13.1159 80.8295 12.129C81.1804 11.9536 81.3778 12.1071 81.4436 12.4799L81.6629 14.4756C82.1892 13.0063 83.1981 11.8001 85.0402 11.8001C89.4045 11.7562 89.0536 17.0854 85.8736 16.9977Z" fill="#202020"/>
<path d="M105.465 26.5149C105.465 26.7561 105.289 26.8658 104.916 26.8658C103.732 26.8658 100.925 26.9974 99.8066 27.1509C99.4557 27.1947 99.2583 27.0193 99.2583 26.6684V25.1771C98.4249 26.5149 97.0652 27.436 94.9379 27.436C90.7053 27.436 88.3148 23.8832 88.4903 18.7514C88.6657 13.7292 92.1308 11.2072 96.3634 11.8651C97.7231 12.0844 98.6881 12.7423 99.2802 13.6195V11.9967C99.2802 11.0317 99.2364 10.4615 98.6442 10.308C98.3591 10.1983 98.1398 10.0667 98.1398 9.82551C98.1398 9.56234 98.2933 9.43075 98.6223 9.34303C99.5434 9.21145 101.758 8.72897 103.754 7.74208C104.061 7.58856 104.324 7.72015 104.324 8.09297V24.3657C104.324 25.3745 104.412 25.9008 104.982 26.0543C105.289 26.1859 105.465 26.2517 105.465 26.5149ZM99.3241 18.554C99.1925 14.9573 97.8767 13.2687 96.1441 13.3783C94.3897 13.5099 93.6001 16.2951 93.644 19.8479C93.7317 23.5104 95.0914 25.5061 96.7801 25.3745C98.5346 25.2648 99.4995 23.0937 99.3241 18.554Z" fill="#202020"/>
<path d="M110.277 7.67174C109.985 7.67174 109.683 7.67824 109.426 7.66524C108.37 7.66524 107.659 7.10655 107.126 6.26526C106.831 5.79752 106.951 5.58314 107.503 5.53441C108.289 5.46945 109.975 5.40449 110.654 5.35251L108.565 2.05558C108.517 1.97762 108.565 1.87692 108.653 1.86393C109.572 1.74375 110.284 1.96138 110.829 2.49408C111.414 3.06252 111.937 3.88757 112.463 4.57944C113.045 3.83885 114.126 2.1108 114.763 1.20454C115.045 0.801765 115.364 0.788772 115.62 1.14608C115.932 1.56185 116.182 2.02309 116.364 2.51033C116.442 2.7442 116.309 3.09825 116.169 3.33537C115.799 3.95578 115.37 4.54371 114.89 5.25507C115.309 5.30704 115.526 5.32003 115.877 5.37525C116.787 5.51493 117.449 5.86248 117.979 6.51862C118.057 6.61607 118.242 6.95388 118.157 7.22024C118.115 7.35666 117.764 7.45736 117.547 7.4736C116.761 7.53207 114.955 7.53532 114.435 7.52557C114.669 7.89587 114.896 8.27916 115.071 8.56175C115.471 9.19515 115.874 9.8318 116.277 10.4652C116.523 10.8517 116.41 11.0921 115.984 11.222C115.614 11.3325 115.218 11.3325 114.857 11.1961C114.497 11.0596 114.211 10.7868 113.993 10.4685C113.606 9.89352 112.885 8.72741 112.684 8.46755C112.109 9.31859 111.446 10.319 110.891 11.1733C110.336 12.0276 109.939 12.0146 109.41 11.1311C108.975 10.4067 108.806 9.69213 109.41 8.95154C109.692 8.56175 110.277 7.67174 110.277 7.67174Z" fill="#B8A4FD"/>
</svg>
