<svg width="37" height="36" viewBox="0 0 37 36" fill="none" xmlns="http://www.w3.org/2000/svg">
<path d="M11.2916 22.2753C10.3488 22.2753 9.37467 22.2962 8.54715 22.2543C5.14281 22.2543 2.84881 20.4526 1.13093 17.7397C0.177714 16.2313 0.565285 15.5399 2.34602 15.3828C4.88094 15.1733 10.3174 14.9638 12.5067 14.7962L5.7713 4.1642C5.61418 3.9128 5.7713 3.58808 6.05413 3.54618C9.01852 3.15861 11.3125 3.86042 13.0723 5.57831C14.9578 7.41141 16.6442 10.072 18.3412 12.3032C20.2162 9.91491 23.7043 4.34227 25.7574 1.41977C26.6687 0.120888 27.6952 0.0789886 28.5228 1.23123C29.5284 2.57201 30.3349 4.05945 30.9215 5.63068C31.1729 6.38487 30.7434 7.52663 30.293 8.2913C29.0989 10.292 27.7162 12.188 26.1659 14.482C27.5172 14.6496 28.219 14.6915 29.3503 14.8695C32.2832 15.32 34.4201 16.4408 36.1275 18.5567C36.3789 18.8709 36.976 19.9603 36.7036 20.8193C36.5675 21.2592 35.4362 21.5839 34.7344 21.6363C32.1994 21.8249 26.3754 21.8353 24.6994 21.8039C25.4536 22.998 26.1869 24.2341 26.7525 25.1454C28.0409 27.188 29.3398 29.2411 30.6387 31.2837C31.4348 32.5302 31.0682 33.3053 29.6959 33.7243C28.5018 34.0805 27.2239 34.0805 26.0612 33.6405C24.8985 33.2006 23.9767 32.3207 23.2748 31.2942C22.0283 29.4401 19.7029 25.6796 19.0535 24.8416C17.1994 27.586 15.0625 30.8123 13.2713 33.5672C11.4801 36.3221 10.2022 36.2802 8.49478 33.431C7.09114 31.0951 6.54645 28.7907 8.49478 26.4024C9.40609 25.1454 11.2916 22.2753 11.2916 22.2753Z" fill="#B8A4FD"/>
</svg>